# xmcd
# 
# Track frame offsets:
#     150
#     29138
#     51955
#     74533
#     91822
#     111068
#     138019
#     161323
#     175544
#     195468
#     220448
#     255554
# 
# Disc length: 3637
# 
# Revision: 0
# Processed by: cddbd v1.5.2PL0 Copyright (c) Steve Scherf et al.
# Submitted via: fre:ac v1.0.17
# 
DISCID=a20e330c
DTITLE=Dire Straits - On Every Street
DYEAR=1991
DGENRE=Rock
TTITLE0=Calling Elvis
TTITLE1=On Every Street
TTITLE2=When It Comes To You
TTITLE3=Fade To Black
TTITLE4=The Bug
TTITLE5=You And Your Friend
TTITLE6=Heavy Fuel
TTITLE7=Iron Hand
TTITLE8=Ticket To Heaven
TTITLE9=My Parties
TTITLE10=Planet Of New Orleans
TTITLE11=How Long
EXTD=YEAR: 1991
EXTT0=
EXTT1=
EXTT2=
EXTT3=
EXTT4=
EXTT5=
EXTT6=
EXTT7=
EXTT8=
EXTT9=
EXTT10=
EXTT11=
PLAYORDER=
